STARTFONT 2.1
COMMENT https://github.com/hughpyle/ASR33/
FONT -tape-tape--6-60-75-75-C-60-ISO10646-1
SIZE 6 75 75
FONTBOUNDINGBOX 5 6 0 -1
STARTPROPERTIES 11
    FOUNDRY "tape"
    PIXEL_SIZE 6
    POINT_SIZE 60
    RESOLUTION_X 75
    RESOLUTION_Y 75
    CHARSET_REGISTRY "ISO10646"
    CHARSET_ENCODING "1"
    FONT_ASCENT 5
    FONT_DESCENT 1
    DEFAULT_CHAR 0
    COPYRIGHT "Copyright (c) 2018 by Hugh Pyle.  Distributed under the MIT license."
ENDPROPERTIES
CHARS 96
STARTCHAR U+0020
ENCODING 32
SWIDTH 375 0
DWIDTH 3 0
BBX 5 6 0 -1
BITMAP
00
00
00
00
00
00
ENDCHAR
STARTCHAR U+0021
ENCODING 33
SWIDTH 250 0
DWIDTH 2 0
BBX 5 6 0 -1
BITMAP
80
80
80
00
80
00
ENDCHAR
STARTCHAR U+0022
ENCODING 34
SWIDTH 500 0
DWIDTH 4 0
BBX 5 6 0 -1
BITMAP
a0
a0
00
00
00
00
ENDCHAR
STARTCHAR U+0023
ENCODING 35
SWIDTH 750 0
DWIDTH 6 0
BBX 5 6 0 -1
BITMAP
50
f8
50
f8
50
00
ENDCHAR
STARTCHAR U+0024
ENCODING 36
SWIDTH 750 0
DWIDTH 6 0
BBX 5 6 0 -1
BITMAP
70
a0
70
28
f0
00
ENDCHAR
STARTCHAR U+0025
ENCODING 37
SWIDTH 750 0
DWIDTH 6 0
BBX 5 6 0 -1
BITMAP
c8
d0
20
58
98
00
ENDCHAR
STARTCHAR U+0026
ENCODING 38
SWIDTH 750 0
DWIDTH 6 0
BBX 5 6 0 -1
BITMAP
40
a0
68
90
68
00
ENDCHAR
STARTCHAR U+0027
ENCODING 39
SWIDTH 375 0
DWIDTH 3 0
BBX 5 6 0 -1
BITMAP
40
40
00
00
00
00
ENDCHAR
STARTCHAR U+0028
ENCODING 40
SWIDTH 375 0
DWIDTH 3 0
BBX 5 6 0 -1
BITMAP
40
80
80
80
40
00
ENDCHAR
STARTCHAR U+0029
ENCODING 41
SWIDTH 375 0
DWIDTH 3 0
BBX 5 6 0 -1
BITMAP
80
40
40
40
80
00
ENDCHAR
STARTCHAR U+002a
ENCODING 42
SWIDTH 375 0
DWIDTH 3 0
BBX 5 6 0 -1
BITMAP
00
c0
c0
00
00
00
ENDCHAR
STARTCHAR U+002b
ENCODING 43
SWIDTH 750 0
DWIDTH 6 0
BBX 5 6 0 -1
BITMAP
00
20
f8
20
20
00
ENDCHAR
STARTCHAR U+002c
ENCODING 44
SWIDTH 375 0
DWIDTH 3 0
BBX 5 6 0 -1
BITMAP
00
00
00
00
40
80
ENDCHAR
STARTCHAR U+002d
ENCODING 45
SWIDTH 500 0
DWIDTH 4 0
BBX 5 6 0 -1
BITMAP
00
00
e0
00
00
00
ENDCHAR
STARTCHAR U+002e
ENCODING 46
SWIDTH 250 0
DWIDTH 2 0
BBX 5 6 0 -1
BITMAP
00
00
00
00
80
00
ENDCHAR
STARTCHAR U+002f
ENCODING 47
SWIDTH 750 0
DWIDTH 6 0
BBX 5 6 0 -1
BITMAP
08
10
20
40
80
00
ENDCHAR
STARTCHAR U+0030
ENCODING 48
SWIDTH 625 0
DWIDTH 5 0
BBX 5 6 0 -1
BITMAP
60
90
90
90
60
00
ENDCHAR
STARTCHAR U+0031
ENCODING 49
SWIDTH 375 0
DWIDTH 3 0
BBX 5 6 0 -1
BITMAP
40
c0
40
40
40
00
ENDCHAR
STARTCHAR U+0032
ENCODING 50
SWIDTH 625 0
DWIDTH 5 0
BBX 5 6 0 -1
BITMAP
60
90
60
80
f0
00
ENDCHAR
STARTCHAR U+0033
ENCODING 51
SWIDTH 625 0
DWIDTH 5 0
BBX 5 6 0 -1
BITMAP
e0
10
60
10
e0
00
ENDCHAR
STARTCHAR U+0034
ENCODING 52
SWIDTH 625 0
DWIDTH 5 0
BBX 5 6 0 -1
BITMAP
80
90
f0
10
10
00
ENDCHAR
STARTCHAR U+0035
ENCODING 53
SWIDTH 625 0
DWIDTH 5 0
BBX 5 6 0 -1
BITMAP
f0
80
e0
10
e0
00
ENDCHAR
STARTCHAR U+0036
ENCODING 54
SWIDTH 625 0
DWIDTH 5 0
BBX 5 6 0 -1
BITMAP
60
80
e0
90
60
00
ENDCHAR
STARTCHAR U+0037
ENCODING 55
SWIDTH 625 0
DWIDTH 5 0
BBX 5 6 0 -1
BITMAP
f0
10
20
40
80
00
ENDCHAR
STARTCHAR U+0038
ENCODING 56
SWIDTH 625 0
DWIDTH 5 0
BBX 5 6 0 -1
BITMAP
60
90
60
90
60
00
ENDCHAR
STARTCHAR U+0039
ENCODING 57
SWIDTH 625 0
DWIDTH 5 0
BBX 5 6 0 -1
BITMAP
60
90
70
10
e0
00
ENDCHAR
STARTCHAR U+003a
ENCODING 58
SWIDTH 250 0
DWIDTH 2 0
BBX 5 6 0 -1
BITMAP
00
80
00
00
80
00
ENDCHAR
STARTCHAR U+003b
ENCODING 59
SWIDTH 375 0
DWIDTH 3 0
BBX 5 6 0 -1
BITMAP
00
40
00
00
40
80
ENDCHAR
STARTCHAR U+003c
ENCODING 60
SWIDTH 500 0
DWIDTH 4 0
BBX 5 6 0 -1
BITMAP
20
40
80
40
20
00
ENDCHAR
STARTCHAR U+003d
ENCODING 61
SWIDTH 625 0
DWIDTH 5 0
BBX 5 6 0 -1
BITMAP
00
f0
00
f0
00
00
ENDCHAR
STARTCHAR U+003e
ENCODING 62
SWIDTH 500 0
DWIDTH 4 0
BBX 5 6 0 -1
BITMAP
80
40
20
40
80
00
ENDCHAR
STARTCHAR U+003f
ENCODING 63
SWIDTH 625 0
DWIDTH 5 0
BBX 5 6 0 -1
BITMAP
60
90
20
40
40
00
ENDCHAR
STARTCHAR U+0040
ENCODING 64
SWIDTH 750 0
DWIDTH 6 0
BBX 5 6 0 -1
BITMAP
70
b8
b8
80
70
00
ENDCHAR
STARTCHAR U+0041
ENCODING 65
SWIDTH 625 0
DWIDTH 5 0
BBX 5 6 0 -1
BITMAP
60
90
f0
90
90
00
ENDCHAR
STARTCHAR U+0042
ENCODING 66
SWIDTH 625 0
DWIDTH 5 0
BBX 5 6 0 -1
BITMAP
e0
90
e0
90
e0
00
ENDCHAR
STARTCHAR U+0043
ENCODING 67
SWIDTH 625 0
DWIDTH 5 0
BBX 5 6 0 -1
BITMAP
70
80
80
80
70
00
ENDCHAR
STARTCHAR U+0044
ENCODING 68
SWIDTH 625 0
DWIDTH 5 0
BBX 5 6 0 -1
BITMAP
e0
90
90
90
e0
00
ENDCHAR
STARTCHAR U+0045
ENCODING 69
SWIDTH 625 0
DWIDTH 5 0
BBX 5 6 0 -1
BITMAP
f0
80
e0
80
f0
00
ENDCHAR
STARTCHAR U+0046
ENCODING 70
SWIDTH 625 0
DWIDTH 5 0
BBX 5 6 0 -1
BITMAP
f0
80
e0
80
80
00
ENDCHAR
STARTCHAR U+0047
ENCODING 71
SWIDTH 625 0
DWIDTH 5 0
BBX 5 6 0 -1
BITMAP
70
80
b0
90
70
00
ENDCHAR
STARTCHAR U+0048
ENCODING 72
SWIDTH 625 0
DWIDTH 5 0
BBX 5 6 0 -1
BITMAP
90
90
f0
90
90
00
ENDCHAR
STARTCHAR U+0049
ENCODING 73
SWIDTH 250 0
DWIDTH 2 0
BBX 5 6 0 -1
BITMAP
80
80
80
80
80
00
ENDCHAR
STARTCHAR U+004a
ENCODING 74
SWIDTH 500 0
DWIDTH 4 0
BBX 5 6 0 -1
BITMAP
20
20
20
a0
40
00
ENDCHAR
STARTCHAR U+004b
ENCODING 75
SWIDTH 625 0
DWIDTH 5 0
BBX 5 6 0 -1
BITMAP
90
a0
c0
a0
90
00
ENDCHAR
STARTCHAR U+004c
ENCODING 76
SWIDTH 500 0
DWIDTH 4 0
BBX 5 6 0 -1
BITMAP
80
80
80
80
e0
00
ENDCHAR
STARTCHAR U+004d
ENCODING 77
SWIDTH 750 0
DWIDTH 6 0
BBX 5 6 0 -1
BITMAP
88
d8
a8
88
88
00
ENDCHAR
STARTCHAR U+004e
ENCODING 78
SWIDTH 625 0
DWIDTH 5 0
BBX 5 6 0 -1
BITMAP
90
d0
b0
90
90
00
ENDCHAR
STARTCHAR U+004f
ENCODING 79
SWIDTH 750 0
DWIDTH 6 0
BBX 5 6 0 -1
BITMAP
70
88
88
88
70
00
ENDCHAR
STARTCHAR U+0050
ENCODING 80
SWIDTH 625 0
DWIDTH 5 0
BBX 5 6 0 -1
BITMAP
e0
90
e0
80
80
00
ENDCHAR
STARTCHAR U+0051
ENCODING 81
SWIDTH 750 0
DWIDTH 6 0
BBX 5 6 0 -1
BITMAP
70
88
a8
98
78
00
ENDCHAR
STARTCHAR U+0052
ENCODING 82
SWIDTH 625 0
DWIDTH 5 0
BBX 5 6 0 -1
BITMAP
e0
90
e0
90
90
00
ENDCHAR
STARTCHAR U+0053
ENCODING 83
SWIDTH 625 0
DWIDTH 5 0
BBX 5 6 0 -1
BITMAP
60
80
60
10
e0
00
ENDCHAR
STARTCHAR U+0054
ENCODING 84
SWIDTH 750 0
DWIDTH 6 0
BBX 5 6 0 -1
BITMAP
f8
20
20
20
20
00
ENDCHAR
STARTCHAR U+0055
ENCODING 85
SWIDTH 625 0
DWIDTH 5 0
BBX 5 6 0 -1
BITMAP
90
90
90
90
60
00
ENDCHAR
STARTCHAR U+0056
ENCODING 86
SWIDTH 750 0
DWIDTH 6 0
BBX 5 6 0 -1
BITMAP
88
88
50
50
20
00
ENDCHAR
STARTCHAR U+0057
ENCODING 87
SWIDTH 750 0
DWIDTH 6 0
BBX 5 6 0 -1
BITMAP
88
a8
a8
50
50
00
ENDCHAR
STARTCHAR U+0058
ENCODING 88
SWIDTH 625 0
DWIDTH 5 0
BBX 5 6 0 -1
BITMAP
90
90
60
90
90
00
ENDCHAR
STARTCHAR U+0059
ENCODING 89
SWIDTH 750 0
DWIDTH 6 0
BBX 5 6 0 -1
BITMAP
88
88
50
20
20
00
ENDCHAR
STARTCHAR U+005a
ENCODING 90
SWIDTH 625 0
DWIDTH 5 0
BBX 5 6 0 -1
BITMAP
f0
10
60
80
f0
00
ENDCHAR
STARTCHAR U+005b
ENCODING 91
SWIDTH 375 0
DWIDTH 3 0
BBX 5 6 0 -1
BITMAP
c0
80
80
80
c0
00
ENDCHAR
STARTCHAR U+005c
ENCODING 92
SWIDTH 750 0
DWIDTH 6 0
BBX 5 6 0 -1
BITMAP
80
40
20
10
08
00
ENDCHAR
STARTCHAR U+005d
ENCODING 93
SWIDTH 375 0
DWIDTH 3 0
BBX 5 6 0 -1
BITMAP
c0
40
40
40
c0
00
ENDCHAR
STARTCHAR U+005e
ENCODING 94
SWIDTH 500 0
DWIDTH 4 0
BBX 5 6 0 -1
BITMAP
40
a0
00
00
00
00
ENDCHAR
STARTCHAR U+005f
ENCODING 95
SWIDTH 500 0
DWIDTH 4 0
BBX 5 6 0 -1
BITMAP
00
00
00
00
e0
00
ENDCHAR
STARTCHAR U+0060
ENCODING 96
SWIDTH 375 0
DWIDTH 3 0
BBX 5 6 0 -1
BITMAP
80
40
00
00
00
00
ENDCHAR
STARTCHAR U+0061
ENCODING 97
SWIDTH 625 0
DWIDTH 5 0
BBX 5 6 0 -1
BITMAP
00
70
90
90
70
00
ENDCHAR
STARTCHAR U+0062
ENCODING 98
SWIDTH 625 0
DWIDTH 5 0
BBX 5 6 0 -1
BITMAP
80
e0
90
90
e0
00
ENDCHAR
STARTCHAR U+0063
ENCODING 99
SWIDTH 500 0
DWIDTH 4 0
BBX 5 6 0 -1
BITMAP
00
60
80
80
60
00
ENDCHAR
STARTCHAR U+0064
ENCODING 100
SWIDTH 625 0
DWIDTH 5 0
BBX 5 6 0 -1
BITMAP
10
70
90
90
70
00
ENDCHAR
STARTCHAR U+0065
ENCODING 101
SWIDTH 625 0
DWIDTH 5 0
BBX 5 6 0 -1
BITMAP
00
60
f0
80
70
00
ENDCHAR
STARTCHAR U+0066
ENCODING 102
SWIDTH 500 0
DWIDTH 4 0
BBX 5 6 0 -1
BITMAP
60
80
c0
80
80
00
ENDCHAR
STARTCHAR U+0067
ENCODING 103
SWIDTH 625 0
DWIDTH 5 0
BBX 5 6 0 -1
BITMAP
00
70
90
70
10
e0
ENDCHAR
STARTCHAR U+0068
ENCODING 104
SWIDTH 625 0
DWIDTH 5 0
BBX 5 6 0 -1
BITMAP
80
e0
90
90
90
00
ENDCHAR
STARTCHAR U+0069
ENCODING 105
SWIDTH 250 0
DWIDTH 2 0
BBX 5 6 0 -1
BITMAP
80
00
80
80
80
00
ENDCHAR
STARTCHAR U+006a
ENCODING 106
SWIDTH 375 0
DWIDTH 3 0
BBX 5 6 0 -1
BITMAP
40
00
40
40
40
80
ENDCHAR
STARTCHAR U+006b
ENCODING 107
SWIDTH 750 0
DWIDTH 6 0
BBX 5 6 0 -1
BITMAP
80
90
e0
90
88
00
ENDCHAR
STARTCHAR U+006c
ENCODING 108
SWIDTH 375 0
DWIDTH 3 0
BBX 5 6 0 -1
BITMAP
80
80
80
80
40
00
ENDCHAR
STARTCHAR U+006d
ENCODING 109
SWIDTH 750 0
DWIDTH 6 0
BBX 5 6 0 -1
BITMAP
00
f0
a8
a8
a8
00
ENDCHAR
STARTCHAR U+006e
ENCODING 110
SWIDTH 625 0
DWIDTH 5 0
BBX 5 6 0 -1
BITMAP
00
e0
90
90
90
00
ENDCHAR
STARTCHAR U+006f
ENCODING 111
SWIDTH 750 0
DWIDTH 6 0
BBX 5 6 0 -1
BITMAP
00
70
88
88
70
00
ENDCHAR
STARTCHAR U+0070
ENCODING 112
SWIDTH 625 0
DWIDTH 5 0
BBX 5 6 0 -1
BITMAP
00
e0
90
90
e0
80
ENDCHAR
STARTCHAR U+0071
ENCODING 113
SWIDTH 625 0
DWIDTH 5 0
BBX 5 6 0 -1
BITMAP
00
70
90
90
70
10
ENDCHAR
STARTCHAR U+0072
ENCODING 114
SWIDTH 500 0
DWIDTH 4 0
BBX 5 6 0 -1
BITMAP
00
60
80
80
80
00
ENDCHAR
STARTCHAR U+0073
ENCODING 115
SWIDTH 500 0
DWIDTH 4 0
BBX 5 6 0 -1
BITMAP
00
60
c0
20
c0
00
ENDCHAR
STARTCHAR U+0074
ENCODING 116
SWIDTH 500 0
DWIDTH 4 0
BBX 5 6 0 -1
BITMAP
80
e0
80
80
60
00
ENDCHAR
STARTCHAR U+0075
ENCODING 117
SWIDTH 625 0
DWIDTH 5 0
BBX 5 6 0 -1
BITMAP
00
90
90
90
70
00
ENDCHAR
STARTCHAR U+0076
ENCODING 118
SWIDTH 750 0
DWIDTH 6 0
BBX 5 6 0 -1
BITMAP
00
88
88
50
20
00
ENDCHAR
STARTCHAR U+0077
ENCODING 119
SWIDTH 750 0
DWIDTH 6 0
BBX 5 6 0 -1
BITMAP
00
a8
a8
d8
50
00
ENDCHAR
STARTCHAR U+0078
ENCODING 120
SWIDTH 625 0
DWIDTH 5 0
BBX 5 6 0 -1
BITMAP
00
90
60
90
90
00
ENDCHAR
STARTCHAR U+0079
ENCODING 121
SWIDTH 625 0
DWIDTH 5 0
BBX 5 6 0 -1
BITMAP
00
90
90
60
40
80
ENDCHAR
STARTCHAR U+007a
ENCODING 122
SWIDTH 625 0
DWIDTH 5 0
BBX 5 6 0 -1
BITMAP
00
f0
20
40
f0
00
ENDCHAR
STARTCHAR U+007b
ENCODING 123
SWIDTH 500 0
DWIDTH 4 0
BBX 5 6 0 -1
BITMAP
60
40
80
40
60
00
ENDCHAR
STARTCHAR U+007c
ENCODING 124
SWIDTH 250 0
DWIDTH 2 0
BBX 5 6 0 -1
BITMAP
80
80
80
80
80
00
ENDCHAR
STARTCHAR U+007d
ENCODING 125
SWIDTH 500 0
DWIDTH 4 0
BBX 5 6 0 -1
BITMAP
c0
40
20
40
c0
00
ENDCHAR
STARTCHAR U+007e
ENCODING 126
SWIDTH 625 0
DWIDTH 5 0
BBX 5 6 0 -1
BITMAP
50
a0
00
00
00
00
ENDCHAR
STARTCHAR U+007f
ENCODING 127
SWIDTH 375 0
DWIDTH 3 0
BBX 5 6 0 -1
BITMAP
00
00
00
00
00
00
ENDCHAR
ENDFONT
